<svg width="130" height="42" viewBox="0 0 130 42" fill="none" xmlns="http://www.w3.org/2000/svg">
<mask id="path-1-outside-1_75_88" maskUnits="userSpaceOnUse" x="0" y="0" width="130" height="42" fill="black">
<rect fill="white" width="130" height="42"/>
<path fill-rule="evenodd" clip-rule="evenodd" d="M1.87935 1C8.32872 1.29397 12.4259 2.42988 14.9088 5.18802C15.5863 5.94063 16.1292 6.79927 16.5655 7.76726C17.4936 7.5385 18.4644 7.41711 19.4636 7.41711C20.4684 7.41711 21.4444 7.53986 22.3773 7.77111C22.8138 6.80155 23.3573 5.94162 24.0357 5.18802C26.5185 2.42988 30.6157 1.29397 37.0651 1L37.0852 1.43741L37.9445 1.47658C37.6488 7.90037 36.5059 12.1528 33.7625 14.8175C33.0052 15.5532 32.1403 16.1535 31.1639 16.6424C31.37 17.52 31.479 18.4347 31.479 19.3748C31.479 20.1874 31.3976 20.9811 31.2424 21.7482C32.1867 22.2297 33.0255 22.8175 33.7625 23.5334C36.5059 26.1981 37.6488 30.4505 37.9445 36.8743L37.0852 36.9135L37.0651 37.3509C30.6157 37.0569 26.5185 35.921 24.0357 33.1629C23.4415 32.5028 22.9508 31.7612 22.5448 30.9358C21.5615 31.1947 20.5287 31.3326 19.4636 31.3326C18.404 31.3326 17.3764 31.1961 16.3977 30.9398C15.9921 31.7636 15.502 32.5039 14.9088 33.1629C12.4259 35.921 8.32872 37.0569 1.87935 37.3509L1.85922 36.9135L1 36.8743C1.29563 30.4505 2.43858 26.1981 5.18196 23.5334C5.91486 22.8215 6.74842 22.2363 7.68638 21.7562C7.53012 20.9866 7.44811 20.1903 7.44811 19.3748C7.44811 18.432 7.55776 17.5146 7.76507 16.6346C6.79497 16.1472 5.93529 15.5493 5.18196 14.8175C2.43858 12.1528 1.29563 7.90037 1 1.47658L1.85922 1.43741L1.87935 1ZM9.34213 17.2995C9.20409 17.9698 9.13159 18.6639 9.13159 19.3748C9.13159 19.9544 9.17977 20.5227 9.27235 21.0761C11.5911 20.2495 14.4286 19.8794 17.8252 19.7335L17.8622 20.5877L18.3019 20.6066C18.1502 24.1049 17.8326 27.0146 17.0385 29.3724C17.8163 29.5586 18.6284 29.6572 19.4636 29.6572C20.3045 29.6572 21.122 29.5572 21.9046 29.3685C21.1115 27.0114 20.7942 24.103 20.6426 20.6066L21.0822 20.5877L21.1193 19.7335C24.5079 19.8791 27.3401 20.2477 29.6558 21.0703C29.7477 20.5187 29.7956 19.9523 29.7956 19.3748C29.7956 18.6659 29.7235 17.9737 29.5862 17.3052C27.2834 18.1105 24.474 18.4733 21.1193 18.6174L21.0822 17.7632L20.6426 17.7443C20.7864 14.429 21.0791 11.6424 21.7852 9.35312C21.0389 9.1826 20.2618 9.09251 19.4636 9.09251C18.6711 9.09251 17.8995 9.1813 17.1582 9.34943C17.865 11.6394 18.158 14.4272 18.3019 17.7443L17.8622 17.7632L17.8252 18.6174C14.4626 18.4729 11.6479 18.1088 9.34213 17.2995ZM15.5536 9.8543C16.1163 11.6876 16.4146 13.9845 16.5737 16.8724C13.8083 16.6914 11.5935 16.3266 9.81525 15.6889C10.8361 13.0439 12.9236 10.9252 15.5536 9.8543ZM14.9543 8.28773C11.9043 9.5175 9.47712 11.9575 8.27403 15.0092C7.54739 14.618 6.91283 14.1577 6.35784 13.6186C4.26712 11.5878 3.14212 8.27705 2.75757 2.72476C8.54683 3.0829 11.7642 4.20558 13.6549 6.30595C14.1686 6.87661 14.597 7.53238 14.9543 8.28773ZM23.3889 9.86058C22.8274 11.6928 22.5296 13.9878 22.3708 16.8724C25.1282 16.6919 27.3384 16.3287 29.114 15.6944C28.0958 13.052 26.0134 10.9342 23.3889 9.86058ZM30.6561 15.0169C31.3887 14.624 32.028 14.1612 32.5866 13.6186C34.6773 11.5878 35.8023 8.27705 36.1869 2.72476C30.3976 3.0829 27.1803 4.20558 25.2896 6.30595C24.7745 6.87809 24.3453 7.53578 23.9874 8.29361C27.0331 9.52629 29.456 11.9665 30.6561 15.0169ZM29.2423 22.7031C27.4451 22.04 25.195 21.6634 22.3708 21.4785C22.54 24.5507 22.8668 26.9542 23.5019 28.8421C26.1881 27.7059 28.2915 25.4704 29.2423 22.7031ZM24.1516 30.3882C24.4746 31.0085 24.851 31.5578 25.2896 32.045C27.1803 34.1453 30.3976 35.268 36.1869 35.6261C35.8023 30.0739 34.6773 26.7631 32.5866 24.7323C32.0599 24.2206 31.4614 23.78 30.7806 23.4019C29.6492 26.5507 27.2286 29.0894 24.1516 30.3882ZM15.4404 28.8485C16.0769 26.9596 16.4043 24.5542 16.5737 21.4785C13.7414 21.6639 11.4865 22.0421 9.6868 22.7088C10.6403 25.4787 12.7488 27.715 15.4404 28.8485ZM8.1494 23.4099C7.47457 23.7862 6.88087 24.2243 6.35784 24.7323C4.26712 26.7631 3.14212 30.0739 2.75757 35.6261C8.54683 35.268 11.7642 34.1453 13.6549 32.045C14.0921 31.5593 14.4674 31.012 14.7898 30.3942C11.7086 29.0983 9.2838 26.5599 8.1494 23.4099Z"/>
<path d="M62.6365 5.35602C62.6365 6.58464 62.2226 7.57592 61.3949 8.32984C60.5532 9.08377 59.4519 9.46073 58.0911 9.46073H54.4295V14.1309C54.4295 14.6335 54.5487 14.9825 54.7872 15.178C55.1099 15.3735 55.6781 15.4712 56.4918 15.4712V16.1414H51.1467V15.4712C51.8762 15.4712 52.4023 15.3735 52.725 15.178C52.9635 14.9825 53.0827 14.6335 53.0827 14.1309V3.45026C53.0827 3.26876 53.0546 3.12914 52.9985 3.03141C52.9284 2.84991 52.8372 2.70332 52.725 2.59162C52.4584 2.36824 51.9323 2.25654 51.1467 2.25654V1.5445H58.2384C59.4729 1.5445 60.5111 1.87958 61.3528 2.54974C62.2086 3.23386 62.6365 4.16928 62.6365 5.35602ZM61.1845 5.35602C61.1845 4.43455 60.8548 3.68761 60.1954 3.11518C59.536 2.58464 58.7504 2.31937 57.8385 2.31937H56.4497C56.3374 2.31937 56.2182 2.32635 56.0919 2.34031C55.9797 2.34031 55.8675 2.34031 55.7552 2.34031C55.4466 2.34031 55.173 2.37522 54.9345 2.44503C54.7381 2.51483 54.6049 2.63351 54.5347 2.80105C54.4646 2.95462 54.4295 3.16405 54.4295 3.42932V8.64398H57.8175C58.3366 8.64398 58.7995 8.56719 59.2064 8.41361C59.6272 8.24607 59.985 8.02269 60.2796 7.74346C60.8828 7.14311 61.1845 6.34729 61.1845 5.35602Z"/>
<path d="M76.4137 11.3874C76.4137 12.9511 75.9648 14.2007 75.0669 15.1361C74.2112 16.0716 73.1169 16.5393 71.7841 16.5393C70.4374 16.5393 69.3361 16.0716 68.4803 15.1361C67.5825 14.2007 67.1335 12.9511 67.1335 11.3874C67.1335 9.82373 67.5825 8.57417 68.4803 7.63874C69.3361 6.70332 70.4374 6.2356 71.7841 6.2356C73.1169 6.2356 74.2112 6.70332 75.0669 7.63874C75.9648 8.57417 76.4137 9.82373 76.4137 11.3874ZM74.9828 11.3874C74.9828 10.103 74.6741 9.04887 74.0568 8.22513C73.4817 7.4014 72.7241 6.98953 71.7841 6.98953C70.8582 6.98953 70.0866 7.4014 69.4694 8.22513C68.8661 9.04887 68.5645 10.103 68.5645 11.3874C68.5645 12.6579 68.8591 13.712 69.4483 14.5497C70.0516 15.3595 70.8302 15.7644 71.7841 15.7644C72.696 15.7644 73.4536 15.3595 74.0568 14.5497C74.6741 13.726 74.9828 12.6719 74.9828 11.3874Z"/>
<path d="M89.2738 13.6283C89.3439 13.6841 89.4141 13.733 89.4842 13.7749C89.5544 13.8168 89.6245 13.8656 89.6946 13.9215C88.6705 15.6527 87.2957 16.5183 85.5701 16.5183C84.3356 16.5183 83.2834 16.0855 82.4136 15.2199C81.5438 14.2705 81.1089 13.0768 81.1089 11.6387C81.1089 10.1449 81.5859 8.86038 82.5398 7.78534C83.4658 6.7801 84.6232 6.27749 86.012 6.27749C86.8397 6.27749 87.5622 6.43804 88.1795 6.75916C88.404 6.87085 88.6074 7.00349 88.7898 7.15707C88.9862 7.31065 89.1475 7.49215 89.2738 7.70157C89.4141 7.93892 89.4842 8.17626 89.4842 8.41361C89.4842 8.66492 89.4141 8.90227 89.2738 9.12565C89.1335 9.34904 88.923 9.46073 88.6425 9.46073C88.1374 9.46073 87.8007 9.06981 87.6324 8.28796C87.5903 8.07853 87.5061 7.90401 87.3799 7.7644C87.2536 7.62478 87.0993 7.49913 86.9169 7.38743C86.5521 7.16405 86.1032 7.05236 85.5701 7.05236C84.7705 7.05236 84.062 7.46422 83.4447 8.28796C82.8274 9.15358 82.5188 10.1728 82.5188 11.3455C82.5188 11.9738 82.596 12.5462 82.7503 13.0628C82.9186 13.5794 83.1641 14.0262 83.4868 14.4031C84.1462 15.185 84.9669 15.5759 85.9489 15.5759C87.1554 15.5759 88.2637 14.9267 89.2738 13.6283Z"/>
<path d="M104.775 16.1414H100.23V15.4712C100.875 15.4712 101.296 15.3944 101.492 15.2408C101.577 15.199 101.619 15.1361 101.619 15.0524C101.619 14.9407 101.569 14.836 101.471 14.7382C101.401 14.6684 101.331 14.5986 101.261 14.5288C101.205 14.459 101.149 14.3892 101.093 14.3194C100.672 13.7609 100.258 13.2024 99.8509 12.644C99.4441 12.0716 99.0373 11.5061 98.6304 10.9476C98.3358 11.185 98.0342 11.4154 97.7255 11.6387C97.4309 11.8621 97.1293 12.0925 96.8207 12.3298V14.3822C96.8207 14.801 96.9119 15.0803 97.0942 15.2199C97.2205 15.2897 97.3818 15.3455 97.5782 15.3874C97.7746 15.4433 98.0061 15.4712 98.2727 15.4712V16.1414H94.1692V15.4712C94.4217 15.4712 94.6392 15.4433 94.8215 15.3874C95.0179 15.3455 95.1723 15.2897 95.2845 15.2199C95.4528 15.0942 95.537 14.815 95.537 14.3822V3.55497C95.537 3.08028 95.3266 2.80803 94.9057 2.73822C94.8356 2.72426 94.7514 2.71728 94.6532 2.71728C94.555 2.70332 94.4357 2.69633 94.2954 2.69633C94.2814 2.62653 94.2674 2.5637 94.2534 2.50785C94.2393 2.43804 94.2253 2.36824 94.2113 2.29843C94.6602 2.13089 95.0951 1.97033 95.516 1.81675C95.9509 1.64921 96.3858 1.48167 96.8207 1.31414V11.3246C97.5361 10.7382 98.2446 10.1658 98.9461 9.60733C99.6615 9.0349 100.377 8.4555 101.093 7.86911C101.233 7.77138 101.303 7.67365 101.303 7.57592C101.303 7.50611 101.275 7.44328 101.219 7.38743C101.064 7.19197 100.616 7.09424 99.872 7.09424V6.44503H104.123V7.09424C103.73 7.09424 103.407 7.14311 103.155 7.24084C103.043 7.29668 102.811 7.47818 102.46 7.78534L101.892 8.1623C101.499 8.48342 101.107 8.80454 100.714 9.12565C100.335 9.44677 99.9421 9.76789 99.5353 10.089C100.096 10.8429 100.651 11.6038 101.198 12.3717C101.759 13.1257 102.32 13.8796 102.881 14.6335C103.092 14.9127 103.323 15.1012 103.576 15.199C103.926 15.3805 104.326 15.4712 104.775 15.4712V16.1414Z"/>
<path d="M117.842 13.6283C117.913 13.6841 117.983 13.74 118.053 13.7958C118.137 13.8517 118.214 13.9075 118.284 13.9634C117.948 14.466 117.576 14.8848 117.169 15.2199C116.762 15.555 116.327 15.8342 115.864 16.0576C115.233 16.3647 114.553 16.5183 113.823 16.5183C112.434 16.5183 111.298 16.0785 110.414 15.199C109.474 14.2635 109.004 13 109.004 11.4084C109.004 9.8726 109.453 8.637 110.351 7.70157C111.235 6.73822 112.357 6.25654 113.718 6.25654C115.079 6.25654 116.152 6.64747 116.938 7.42932C117.779 8.22513 118.2 9.37696 118.2 10.8848C116.896 10.9267 115.612 10.9756 114.349 11.0314C113.087 11.0733 111.796 11.1152 110.477 11.1571C110.477 11.2129 110.47 11.2688 110.456 11.3246C110.456 11.3665 110.456 11.4154 110.456 11.4712C110.456 12.0576 110.533 12.5881 110.688 13.0628C110.856 13.5375 111.095 13.9634 111.403 14.3403C112.049 15.178 112.953 15.5969 114.118 15.5969C114.735 15.5969 115.38 15.4363 116.054 15.1152C116.362 14.9337 116.664 14.7243 116.959 14.4869C117.267 14.2356 117.562 13.9494 117.842 13.6283ZM110.519 10.3613C111.572 10.3333 112.61 10.2984 113.634 10.2565C114.658 10.2147 115.696 10.1798 116.748 10.1518C116.734 9.23037 116.447 8.4904 115.885 7.93194C115.31 7.31763 114.588 7.01047 113.718 7.01047C112.876 7.01047 112.14 7.34555 111.508 8.01571C110.919 8.63002 110.589 9.41187 110.519 10.3613Z"/>
<path d="M128.6 14.089C128.67 14.1449 128.733 14.1937 128.79 14.2356C128.86 14.2775 128.93 14.3194 129 14.3613C128.747 14.9476 128.404 15.4363 127.969 15.8272C127.478 16.288 126.945 16.5183 126.37 16.5183C125.612 16.5183 125.037 16.2461 124.644 15.7016C124.532 15.5061 124.441 15.2827 124.37 15.0314C124.3 14.7801 124.265 14.5009 124.265 14.1937V7.26178H122.624V6.59162C123.381 6.59162 123.943 6.30541 124.307 5.73298C124.714 5.07679 124.918 4.14136 124.918 2.9267H125.549V6.44503H128.306V7.26178H125.549V14.3403C125.549 15.0803 125.942 15.4503 126.727 15.4503C127.359 15.4503 127.983 14.9965 128.6 14.089Z"/>
<path d="M69.2652 23.9948C68.5777 23.9948 68.0867 24.1204 67.7921 24.3717C67.5677 24.5672 67.4063 24.8743 67.3081 25.2932L63.6255 38.1728H63.1205C62.6154 36.3997 62.1104 34.6475 61.6053 32.9162C61.1003 31.185 60.5952 29.4258 60.0902 27.6387C59.5711 29.4258 59.052 31.185 58.533 32.9162C58.0279 34.6475 57.5159 36.3997 56.9968 38.1728H56.4707L52.746 24.8534C52.6618 24.5462 52.5145 24.3368 52.3041 24.2251C52.0235 24.0716 51.5465 23.9948 50.8731 23.9948V23.3246H56.1551V23.9948C55.664 23.9948 55.2642 24.0087 54.9556 24.0366C54.661 24.0646 54.4646 24.1204 54.3664 24.2042C54.2822 24.274 54.2331 24.3787 54.2191 24.5183C54.2191 24.644 54.2331 24.7696 54.2611 24.8953L57.0389 35.0524C57.4738 33.5305 57.9017 32.0157 58.3225 30.5079C58.7574 29 59.1923 27.4852 59.6272 25.9634L59.3537 24.8534C59.3116 24.6998 59.2485 24.5672 59.1643 24.4555C59.0801 24.3438 58.9889 24.26 58.8907 24.2042C58.6663 24.0646 58.1893 23.9948 57.4598 23.9948V23.3246H62.7838V23.9948C62.2647 23.9948 61.8578 24.0087 61.5632 24.0366C61.2686 24.0646 61.0722 24.1204 60.974 24.2042C60.8898 24.274 60.8267 24.3647 60.7846 24.4764C60.7566 24.5742 60.7706 24.7138 60.8267 24.8953L63.6676 35.0942L66.4664 25.1675C66.5085 25 66.5365 24.8394 66.5506 24.6859C66.5646 24.5183 66.5155 24.3787 66.4032 24.267C66.2209 24.0855 65.6527 23.9948 64.6987 23.9948V23.3246H69.2652V23.9948Z"/>
<path d="M78.9128 35.4084C78.9829 35.4642 79.0531 35.5201 79.1232 35.5759C79.2074 35.6318 79.2846 35.6876 79.3547 35.7435C79.018 36.2461 78.6462 36.6649 78.2394 37C77.8326 37.3351 77.3977 37.6143 76.9347 37.8377C76.3034 38.1448 75.623 38.2984 74.8935 38.2984C73.5046 38.2984 72.3683 37.8586 71.4844 36.9791C70.5445 36.0436 70.0745 34.7801 70.0745 33.1885C70.0745 31.6527 70.5234 30.4171 71.4213 29.4817C72.3051 28.5183 73.4275 28.0366 74.7883 28.0366C76.1491 28.0366 77.2223 28.4276 78.0079 29.2094C78.8497 30.0052 79.2705 31.1571 79.2705 32.6649C77.9658 32.7068 76.6822 32.7557 75.4196 32.8115C74.157 32.8534 72.8663 32.8953 71.5476 32.9372C71.5476 32.993 71.5405 33.0489 71.5265 33.1047C71.5265 33.1466 71.5265 33.1955 71.5265 33.2513C71.5265 33.8377 71.6037 34.3682 71.758 34.8429C71.9264 35.3176 72.1648 35.7435 72.4735 36.1204C73.1188 36.9581 74.0237 37.377 75.1881 37.377C75.8054 37.377 76.4507 37.2164 77.1241 36.8953C77.4327 36.7138 77.7344 36.5044 78.029 36.267C78.3376 36.0157 78.6322 35.7295 78.9128 35.4084ZM71.5897 32.1414C72.6418 32.1134 73.68 32.0785 74.7041 32.0366C75.7282 31.9948 76.7664 31.9599 77.8185 31.9319C77.8045 31.0105 77.5169 30.2705 76.9558 29.712C76.3806 29.0977 75.6581 28.7906 74.7883 28.7906C73.9465 28.7906 73.21 29.1257 72.5787 29.7958C71.9895 30.4101 71.6598 31.192 71.5897 32.1414Z"/>
<path d="M90.428 37.8168C89.8528 37.8168 89.3759 37.8377 88.9971 37.8796C88.8848 37.8935 88.7235 37.9145 88.5131 37.9424C88.3167 37.9703 88.0782 37.9983 87.7976 38.0262C87.7836 37.9145 87.7695 37.8028 87.7555 37.6911C87.7555 37.5794 87.7485 37.4677 87.7345 37.356C87.0751 37.9703 86.1422 38.2775 84.9357 38.2775C83.7292 38.2775 82.7261 37.8586 81.9265 37.0209C81.0426 36.0995 80.6007 34.815 80.6007 33.1675C80.6007 31.6457 81.0286 30.3962 81.8844 29.4188C82.6981 28.4834 83.7152 28.0157 84.9357 28.0157C86.058 28.0157 86.9909 28.288 87.7345 28.8325V25.4817C87.7345 25.1885 87.6433 24.9721 87.4609 24.8325C87.2785 24.6928 86.8577 24.623 86.1983 24.623C86.1702 24.5532 86.1492 24.4764 86.1352 24.3927C86.1352 24.3089 86.1211 24.2321 86.0931 24.1623C86.5841 23.9948 87.0681 23.8272 87.5451 23.6597C88.0361 23.4782 88.5271 23.2967 89.0181 23.1152V36.1204C89.0181 36.4415 89.0953 36.6649 89.2496 36.7906C89.5021 37.1117 89.8949 37.2723 90.428 37.2723V37.8168ZM87.7345 29.8586C87.1032 29.2024 86.3246 28.8743 85.3986 28.8743C84.7954 28.8743 84.2553 29.014 83.7783 29.2932C83.3013 29.5724 82.9155 29.9703 82.6209 30.4869C82.2141 31.2269 82.0106 32.1274 82.0106 33.1885C82.0106 34.4311 82.3333 35.4363 82.9786 36.2042C83.624 37 84.4306 37.3979 85.3986 37.3979C86.3526 37.3979 87.1312 37.0558 87.7345 36.3717V29.8586Z"/>
<path d="M101.217 37.8168C100.642 37.8168 100.165 37.8377 99.786 37.8796C99.6738 37.8935 99.5124 37.9145 99.302 37.9424C99.1056 37.9703 98.8671 37.9983 98.5865 38.0262C98.5725 37.9145 98.5585 37.8028 98.5444 37.6911C98.5444 37.5794 98.5374 37.4677 98.5234 37.356C97.864 37.9703 96.9311 38.2775 95.7246 38.2775C94.5181 38.2775 93.515 37.8586 92.7154 37.0209C91.8316 36.0995 91.3896 34.815 91.3896 33.1675C91.3896 31.6457 91.8175 30.3962 92.6733 29.4188C93.487 28.4834 94.5041 28.0157 95.7246 28.0157C96.8469 28.0157 97.7798 28.288 98.5234 28.8325V25.4817C98.5234 25.1885 98.4322 24.9721 98.2498 24.8325C98.0674 24.6928 97.6466 24.623 96.9872 24.623C96.9591 24.5532 96.9381 24.4764 96.9241 24.3927C96.9241 24.3089 96.91 24.2321 96.882 24.1623C97.373 23.9948 97.857 23.8272 98.334 23.6597C98.825 23.4782 99.316 23.2967 99.807 23.1152V36.1204C99.807 36.4415 99.8842 36.6649 100.039 36.7906C100.291 37.1117 100.684 37.2723 101.217 37.2723V37.8168ZM98.5234 29.8586C97.8921 29.2024 97.1135 28.8743 96.1876 28.8743C95.5843 28.8743 95.0442 29.014 94.5672 29.2932C94.0902 29.5724 93.7044 29.9703 93.4098 30.4869C93.003 31.2269 92.7995 32.1274 92.7995 33.1885C92.7995 34.4311 93.1222 35.4363 93.7675 36.2042C94.4129 37 95.2196 37.3979 96.1876 37.3979C97.1415 37.3979 97.9201 37.0558 98.5234 36.3717V29.8586Z"/>
<path d="M105.272 24.0785C105.272 24.4136 105.16 24.6928 104.935 24.9162C104.711 25.1396 104.43 25.2513 104.094 25.2513C103.785 25.2513 103.525 25.1396 103.315 24.9162C103.118 24.6928 103.02 24.4136 103.02 24.0785C103.02 23.7435 103.126 23.4642 103.336 23.2408C103.546 23.0175 103.799 22.9058 104.094 22.9058C104.43 22.9058 104.711 23.0175 104.935 23.2408C105.16 23.4642 105.272 23.7435 105.272 24.0785ZM106.261 37.9424H102.326V37.2513C102.901 37.2513 103.273 37.1675 103.441 37C103.581 36.8743 103.652 36.644 103.652 36.3089V30.2775C103.652 29.9703 103.588 29.7609 103.462 29.6492C103.308 29.5236 102.936 29.4607 102.347 29.4607L102.263 29L104.935 27.9948V36.3089C104.935 36.6998 104.998 36.9442 105.125 37.0419C105.307 37.1815 105.686 37.2513 106.261 37.2513V37.9424Z"/>
<path d="M117.476 37.9215H113.373V37.2513C113.864 37.2513 114.207 37.1885 114.404 37.0628C114.642 36.9092 114.762 36.6091 114.762 36.1623V30.9058C114.762 29.733 114.207 29.1466 113.099 29.1466C112.44 29.1466 111.886 29.2583 111.437 29.4817C111.24 29.5794 111.009 29.712 110.742 29.8796C110.476 30.0332 110.181 30.2216 109.858 30.445V36.1623C109.858 36.5811 109.95 36.8604 110.132 37C110.244 37.0698 110.399 37.1257 110.595 37.1675C110.791 37.2234 111.03 37.2513 111.31 37.2513V37.9215H107.207V37.2513C107.74 37.2513 108.126 37.1675 108.364 37C108.505 36.8604 108.575 36.5811 108.575 36.1623V30.3822C108.575 30.0052 108.505 29.7679 108.364 29.6702C108.168 29.5166 107.81 29.4398 107.291 29.4398C107.263 29.37 107.242 29.2932 107.228 29.2094C107.228 29.1257 107.214 29.0489 107.186 28.9791C107.635 28.8255 108.077 28.6719 108.512 28.5183C108.961 28.3647 109.41 28.2112 109.858 28.0576V29.5445C111.051 28.5672 112.264 28.0785 113.499 28.0785C114.355 28.0785 114.993 28.3229 115.414 28.8115C115.835 29.3141 116.045 30.0262 116.045 30.9476V36.1414C116.045 36.5742 116.129 36.8604 116.298 37C116.41 37.0698 116.564 37.1257 116.761 37.1675C116.957 37.2234 117.196 37.2513 117.476 37.2513V37.9215Z"/>
<path d="M122.198 37.1047C120.584 37.4537 119.778 38.0262 119.778 38.822C119.778 39.2967 120.079 39.6597 120.683 39.911C121.314 40.1483 122.198 40.267 123.334 40.267C123.699 40.267 124.035 40.2461 124.344 40.2042C124.667 40.1763 124.961 40.1204 125.228 40.0366C125.312 40.0087 125.396 39.9738 125.48 39.9319C125.565 39.904 125.642 39.8761 125.712 39.8482C126.343 39.5969 126.659 39.2757 126.659 38.8848C126.659 38.6056 126.519 38.3752 126.238 38.1937C125.957 38.0122 125.431 37.8237 124.66 37.6283C124.351 37.5585 123.986 37.4817 123.565 37.3979C123.159 37.3141 122.703 37.2164 122.198 37.1047ZM128.469 28.7696C128.469 29.3002 128.237 29.5654 127.774 29.5654C127.578 29.5654 127.388 29.4956 127.206 29.356C127.108 29.3002 127.017 29.2583 126.932 29.2304C126.848 29.1885 126.764 29.1675 126.68 29.1675C126.61 29.1675 126.568 29.1745 126.554 29.1885C126.441 29.2024 126.329 29.2792 126.217 29.4188C126.624 29.9494 126.827 30.6126 126.827 31.4084C126.827 32.3438 126.477 33.1257 125.775 33.7539C125.06 34.3822 124.134 34.6963 122.997 34.6963C122.675 34.6963 122.387 34.6824 122.135 34.6544C121.882 34.6265 121.658 34.5916 121.461 34.5497C120.858 34.6754 120.556 34.8709 120.556 35.1361C120.556 35.4014 120.802 35.5899 121.293 35.7016C121.433 35.7295 121.573 35.7574 121.714 35.7853C121.854 35.7993 121.987 35.8202 122.113 35.8482C122.759 35.9878 123.334 36.1134 123.839 36.2251C124.344 36.3368 124.793 36.4415 125.186 36.5393C125.579 36.637 125.922 36.7417 126.217 36.8534C126.526 36.9511 126.785 37.0698 126.996 37.2094C127.613 37.5724 127.922 38.0332 127.922 38.5916C127.922 40.1972 126.287 41 123.018 41C119.96 41 118.431 40.288 118.431 38.8639C118.431 38.445 118.711 38.0262 119.273 37.6073C119.525 37.4119 119.799 37.2513 120.093 37.1257C120.388 37 120.704 36.9023 121.04 36.8325C119.82 36.5253 119.209 36.0785 119.209 35.4921C119.209 34.9197 119.686 34.4729 120.64 34.1518C119.658 33.5236 119.167 32.5951 119.167 31.3665C119.167 30.4311 119.532 29.6492 120.262 29.0209C120.991 28.3787 121.903 28.0576 122.997 28.0576C124.162 28.0576 125.067 28.3159 125.712 28.8325C126.175 28.288 126.729 28.0157 127.374 28.0157C128.104 28.0157 128.469 28.267 128.469 28.7696ZM125.523 31.4084C125.523 31.0314 125.459 30.6894 125.333 30.3822C125.207 30.0611 125.032 29.7888 124.807 29.5654C124.583 29.3281 124.316 29.1466 124.007 29.0209C123.699 28.8813 123.369 28.8115 123.018 28.8115C122.261 28.8115 121.651 29.0489 121.188 29.5236C120.739 29.9983 120.514 30.6126 120.514 31.3665C120.514 32.1065 120.746 32.7068 121.209 33.1675C121.686 33.6841 122.289 33.9424 123.018 33.9424C123.72 33.9424 124.309 33.7051 124.786 33.2304C125.277 32.7417 125.523 32.1344 125.523 31.4084Z"/>
</mask>
<path fill-rule="evenodd" clip-rule="evenodd" d="M1.87935 1C8.32872 1.29397 12.4259 2.42988 14.9088 5.18802C15.5863 5.94063 16.1292 6.79927 16.5655 7.76726C17.4936 7.5385 18.4644 7.41711 19.4636 7.41711C20.4684 7.41711 21.4444 7.53986 22.3773 7.77111C22.8138 6.80155 23.3573 5.94162 24.0357 5.18802C26.5185 2.42988 30.6157 1.29397 37.0651 1L37.0852 1.43741L37.9445 1.47658C37.6488 7.90037 36.5059 12.1528 33.7625 14.8175C33.0052 15.5532 32.1403 16.1535 31.1639 16.6424C31.37 17.52 31.479 18.4347 31.479 19.3748C31.479 20.1874 31.3976 20.9811 31.2424 21.7482C32.1867 22.2297 33.0255 22.8175 33.7625 23.5334C36.5059 26.1981 37.6488 30.4505 37.9445 36.8743L37.0852 36.9135L37.0651 37.3509C30.6157 37.0569 26.5185 35.921 24.0357 33.1629C23.4415 32.5028 22.9508 31.7612 22.5448 30.9358C21.5615 31.1947 20.5287 31.3326 19.4636 31.3326C18.404 31.3326 17.3764 31.1961 16.3977 30.9398C15.9921 31.7636 15.502 32.5039 14.9088 33.1629C12.4259 35.921 8.32872 37.0569 1.87935 37.3509L1.85922 36.9135L1 36.8743C1.29563 30.4505 2.43858 26.1981 5.18196 23.5334C5.91486 22.8215 6.74842 22.2363 7.68638 21.7562C7.53012 20.9866 7.44811 20.1903 7.44811 19.3748C7.44811 18.432 7.55776 17.5146 7.76507 16.6346C6.79497 16.1472 5.93529 15.5493 5.18196 14.8175C2.43858 12.1528 1.29563 7.90037 1 1.47658L1.85922 1.43741L1.87935 1ZM9.34213 17.2995C9.20409 17.9698 9.13159 18.6639 9.13159 19.3748C9.13159 19.9544 9.17977 20.5227 9.27235 21.0761C11.5911 20.2495 14.4286 19.8794 17.8252 19.7335L17.8622 20.5877L18.3019 20.6066C18.1502 24.1049 17.8326 27.0146 17.0385 29.3724C17.8163 29.5586 18.6284 29.6572 19.4636 29.6572C20.3045 29.6572 21.122 29.5572 21.9046 29.3685C21.1115 27.0114 20.7942 24.103 20.6426 20.6066L21.0822 20.5877L21.1193 19.7335C24.5079 19.8791 27.3401 20.2477 29.6558 21.0703C29.7477 20.5187 29.7956 19.9523 29.7956 19.3748C29.7956 18.6659 29.7235 17.9737 29.5862 17.3052C27.2834 18.1105 24.474 18.4733 21.1193 18.6174L21.0822 17.7632L20.6426 17.7443C20.7864 14.429 21.0791 11.6424 21.7852 9.35312C21.0389 9.1826 20.2618 9.09251 19.4636 9.09251C18.6711 9.09251 17.8995 9.1813 17.1582 9.34943C17.865 11.6394 18.158 14.4272 18.3019 17.7443L17.8622 17.7632L17.8252 18.6174C14.4626 18.4729 11.6479 18.1088 9.34213 17.2995ZM15.5536 9.8543C16.1163 11.6876 16.4146 13.9845 16.5737 16.8724C13.8083 16.6914 11.5935 16.3266 9.81525 15.6889C10.8361 13.0439 12.9236 10.9252 15.5536 9.8543ZM14.9543 8.28773C11.9043 9.5175 9.47712 11.9575 8.27403 15.0092C7.54739 14.618 6.91283 14.1577 6.35784 13.6186C4.26712 11.5878 3.14212 8.27705 2.75757 2.72476C8.54683 3.0829 11.7642 4.20558 13.6549 6.30595C14.1686 6.87661 14.597 7.53238 14.9543 8.28773ZM23.3889 9.86058C22.8274 11.6928 22.5296 13.9878 22.3708 16.8724C25.1282 16.6919 27.3384 16.3287 29.114 15.6944C28.0958 13.052 26.0134 10.9342 23.3889 9.86058ZM30.6561 15.0169C31.3887 14.624 32.028 14.1612 32.5866 13.6186C34.6773 11.5878 35.8023 8.27705 36.1869 2.72476C30.3976 3.0829 27.1803 4.20558 25.2896 6.30595C24.7745 6.87809 24.3453 7.53578 23.9874 8.29361C27.0331 9.52629 29.456 11.9665 30.6561 15.0169ZM29.2423 22.7031C27.4451 22.04 25.195 21.6634 22.3708 21.4785C22.54 24.5507 22.8668 26.9542 23.5019 28.8421C26.1881 27.7059 28.2915 25.4704 29.2423 22.7031ZM24.1516 30.3882C24.4746 31.0085 24.851 31.5578 25.2896 32.045C27.1803 34.1453 30.3976 35.268 36.1869 35.6261C35.8023 30.0739 34.6773 26.7631 32.5866 24.7323C32.0599 24.2206 31.4614 23.78 30.7806 23.4019C29.6492 26.5507 27.2286 29.0894 24.1516 30.3882ZM15.4404 28.8485C16.0769 26.9596 16.4043 24.5542 16.5737 21.4785C13.7414 21.6639 11.4865 22.0421 9.6868 22.7088C10.6403 25.4787 12.7488 27.715 15.4404 28.8485ZM8.1494 23.4099C7.47457 23.7862 6.88087 24.2243 6.35784 24.7323C4.26712 26.7631 3.14212 30.0739 2.75757 35.6261C8.54683 35.268 11.7642 34.1453 13.6549 32.045C14.0921 31.5593 14.4674 31.012 14.7898 30.3942C11.7086 29.0983 9.2838 26.5599 8.1494 23.4099Z" fill="#FEF4D0"/>
<path d="M62.6365 5.35602C62.6365 6.58464 62.2226 7.57592 61.3949 8.32984C60.5532 9.08377 59.4519 9.46073 58.0911 9.46073H54.4295V14.1309C54.4295 14.6335 54.5487 14.9825 54.7872 15.178C55.1099 15.3735 55.6781 15.4712 56.4918 15.4712V16.1414H51.1467V15.4712C51.8762 15.4712 52.4023 15.3735 52.725 15.178C52.9635 14.9825 53.0827 14.6335 53.0827 14.1309V3.45026C53.0827 3.26876 53.0546 3.12914 52.9985 3.03141C52.9284 2.84991 52.8372 2.70332 52.725 2.59162C52.4584 2.36824 51.9323 2.25654 51.1467 2.25654V1.5445H58.2384C59.4729 1.5445 60.5111 1.87958 61.3528 2.54974C62.2086 3.23386 62.6365 4.16928 62.6365 5.35602ZM61.1845 5.35602C61.1845 4.43455 60.8548 3.68761 60.1954 3.11518C59.536 2.58464 58.7504 2.31937 57.8385 2.31937H56.4497C56.3374 2.31937 56.2182 2.32635 56.0919 2.34031C55.9797 2.34031 55.8675 2.34031 55.7552 2.34031C55.4466 2.34031 55.173 2.37522 54.9345 2.44503C54.7381 2.51483 54.6049 2.63351 54.5347 2.80105C54.4646 2.95462 54.4295 3.16405 54.4295 3.42932V8.64398H57.8175C58.3366 8.64398 58.7995 8.56719 59.2064 8.41361C59.6272 8.24607 59.985 8.02269 60.2796 7.74346C60.8828 7.14311 61.1845 6.34729 61.1845 5.35602Z" fill="#FEF4D0"/>
<path d="M76.4137 11.3874C76.4137 12.9511 75.9648 14.2007 75.0669 15.1361C74.2112 16.0716 73.1169 16.5393 71.7841 16.5393C70.4374 16.5393 69.3361 16.0716 68.4803 15.1361C67.5825 14.2007 67.1335 12.9511 67.1335 11.3874C67.1335 9.82373 67.5825 8.57417 68.4803 7.63874C69.3361 6.70332 70.4374 6.2356 71.7841 6.2356C73.1169 6.2356 74.2112 6.70332 75.0669 7.63874C75.9648 8.57417 76.4137 9.82373 76.4137 11.3874ZM74.9828 11.3874C74.9828 10.103 74.6741 9.04887 74.0568 8.22513C73.4817 7.4014 72.7241 6.98953 71.7841 6.98953C70.8582 6.98953 70.0866 7.4014 69.4694 8.22513C68.8661 9.04887 68.5645 10.103 68.5645 11.3874C68.5645 12.6579 68.8591 13.712 69.4483 14.5497C70.0516 15.3595 70.8302 15.7644 71.7841 15.7644C72.696 15.7644 73.4536 15.3595 74.0568 14.5497C74.6741 13.726 74.9828 12.6719 74.9828 11.3874Z" fill="#FEF4D0"/>
<path d="M89.2738 13.6283C89.3439 13.6841 89.4141 13.733 89.4842 13.7749C89.5544 13.8168 89.6245 13.8656 89.6946 13.9215C88.6705 15.6527 87.2957 16.5183 85.5701 16.5183C84.3356 16.5183 83.2834 16.0855 82.4136 15.2199C81.5438 14.2705 81.1089 13.0768 81.1089 11.6387C81.1089 10.1449 81.5859 8.86038 82.5398 7.78534C83.4658 6.7801 84.6232 6.27749 86.012 6.27749C86.8397 6.27749 87.5622 6.43804 88.1795 6.75916C88.404 6.87085 88.6074 7.00349 88.7898 7.15707C88.9862 7.31065 89.1475 7.49215 89.2738 7.70157C89.4141 7.93892 89.4842 8.17626 89.4842 8.41361C89.4842 8.66492 89.4141 8.90227 89.2738 9.12565C89.1335 9.34904 88.923 9.46073 88.6425 9.46073C88.1374 9.46073 87.8007 9.06981 87.6324 8.28796C87.5903 8.07853 87.5061 7.90401 87.3799 7.7644C87.2536 7.62478 87.0993 7.49913 86.9169 7.38743C86.5521 7.16405 86.1032 7.05236 85.5701 7.05236C84.7705 7.05236 84.062 7.46422 83.4447 8.28796C82.8274 9.15358 82.5188 10.1728 82.5188 11.3455C82.5188 11.9738 82.596 12.5462 82.7503 13.0628C82.9186 13.5794 83.1641 14.0262 83.4868 14.4031C84.1462 15.185 84.9669 15.5759 85.9489 15.5759C87.1554 15.5759 88.2637 14.9267 89.2738 13.6283Z" fill="#FEF4D0"/>
<path d="M104.775 16.1414H100.23V15.4712C100.875 15.4712 101.296 15.3944 101.492 15.2408C101.577 15.199 101.619 15.1361 101.619 15.0524C101.619 14.9407 101.569 14.836 101.471 14.7382C101.401 14.6684 101.331 14.5986 101.261 14.5288C101.205 14.459 101.149 14.3892 101.093 14.3194C100.672 13.7609 100.258 13.2024 99.8509 12.644C99.4441 12.0716 99.0373 11.5061 98.6304 10.9476C98.3358 11.185 98.0342 11.4154 97.7255 11.6387C97.4309 11.8621 97.1293 12.0925 96.8207 12.3298V14.3822C96.8207 14.801 96.9119 15.0803 97.0942 15.2199C97.2205 15.2897 97.3818 15.3455 97.5782 15.3874C97.7746 15.4433 98.0061 15.4712 98.2727 15.4712V16.1414H94.1692V15.4712C94.4217 15.4712 94.6392 15.4433 94.8215 15.3874C95.0179 15.3455 95.1723 15.2897 95.2845 15.2199C95.4528 15.0942 95.537 14.815 95.537 14.3822V3.55497C95.537 3.08028 95.3266 2.80803 94.9057 2.73822C94.8356 2.72426 94.7514 2.71728 94.6532 2.71728C94.555 2.70332 94.4357 2.69633 94.2954 2.69633C94.2814 2.62653 94.2674 2.5637 94.2534 2.50785C94.2393 2.43804 94.2253 2.36824 94.2113 2.29843C94.6602 2.13089 95.0951 1.97033 95.516 1.81675C95.9509 1.64921 96.3858 1.48167 96.8207 1.31414V11.3246C97.5361 10.7382 98.2446 10.1658 98.9461 9.60733C99.6615 9.0349 100.377 8.4555 101.093 7.86911C101.233 7.77138 101.303 7.67365 101.303 7.57592C101.303 7.50611 101.275 7.44328 101.219 7.38743C101.064 7.19197 100.616 7.09424 99.872 7.09424V6.44503H104.123V7.09424C103.73 7.09424 103.407 7.14311 103.155 7.24084C103.043 7.29668 102.811 7.47818 102.46 7.78534L101.892 8.1623C101.499 8.48342 101.107 8.80454 100.714 9.12565C100.335 9.44677 99.9421 9.76789 99.5353 10.089C100.096 10.8429 100.651 11.6038 101.198 12.3717C101.759 13.1257 102.32 13.8796 102.881 14.6335C103.092 14.9127 103.323 15.1012 103.576 15.199C103.926 15.3805 104.326 15.4712 104.775 15.4712V16.1414Z" fill="#FEF4D0"/>
<path d="M117.842 13.6283C117.913 13.6841 117.983 13.74 118.053 13.7958C118.137 13.8517 118.214 13.9075 118.284 13.9634C117.948 14.466 117.576 14.8848 117.169 15.2199C116.762 15.555 116.327 15.8342 115.864 16.0576C115.233 16.3647 114.553 16.5183 113.823 16.5183C112.434 16.5183 111.298 16.0785 110.414 15.199C109.474 14.2635 109.004 13 109.004 11.4084C109.004 9.8726 109.453 8.637 110.351 7.70157C111.235 6.73822 112.357 6.25654 113.718 6.25654C115.079 6.25654 116.152 6.64747 116.938 7.42932C117.779 8.22513 118.2 9.37696 118.2 10.8848C116.896 10.9267 115.612 10.9756 114.349 11.0314C113.087 11.0733 111.796 11.1152 110.477 11.1571C110.477 11.2129 110.47 11.2688 110.456 11.3246C110.456 11.3665 110.456 11.4154 110.456 11.4712C110.456 12.0576 110.533 12.5881 110.688 13.0628C110.856 13.5375 111.095 13.9634 111.403 14.3403C112.049 15.178 112.953 15.5969 114.118 15.5969C114.735 15.5969 115.38 15.4363 116.054 15.1152C116.362 14.9337 116.664 14.7243 116.959 14.4869C117.267 14.2356 117.562 13.9494 117.842 13.6283ZM110.519 10.3613C111.572 10.3333 112.61 10.2984 113.634 10.2565C114.658 10.2147 115.696 10.1798 116.748 10.1518C116.734 9.23037 116.447 8.4904 115.885 7.93194C115.31 7.31763 114.588 7.01047 113.718 7.01047C112.876 7.01047 112.14 7.34555 111.508 8.01571C110.919 8.63002 110.589 9.41187 110.519 10.3613Z" fill="#FEF4D0"/>
<path d="M128.6 14.089C128.67 14.1449 128.733 14.1937 128.79 14.2356C128.86 14.2775 128.93 14.3194 129 14.3613C128.747 14.9476 128.404 15.4363 127.969 15.8272C127.478 16.288 126.945 16.5183 126.37 16.5183C125.612 16.5183 125.037 16.2461 124.644 15.7016C124.532 15.5061 124.441 15.2827 124.37 15.0314C124.3 14.7801 124.265 14.5009 124.265 14.1937V7.26178H122.624V6.59162C123.381 6.59162 123.943 6.30541 124.307 5.73298C124.714 5.07679 124.918 4.14136 124.918 2.9267H125.549V6.44503H128.306V7.26178H125.549V14.3403C125.549 15.0803 125.942 15.4503 126.727 15.4503C127.359 15.4503 127.983 14.9965 128.6 14.089Z" fill="#FEF4D0"/>
<path d="M69.2652 23.9948C68.5777 23.9948 68.0867 24.1204 67.7921 24.3717C67.5677 24.5672 67.4063 24.8743 67.3081 25.2932L63.6255 38.1728H63.1205C62.6154 36.3997 62.1104 34.6475 61.6053 32.9162C61.1003 31.185 60.5952 29.4258 60.0902 27.6387C59.5711 29.4258 59.052 31.185 58.533 32.9162C58.0279 34.6475 57.5159 36.3997 56.9968 38.1728H56.4707L52.746 24.8534C52.6618 24.5462 52.5145 24.3368 52.3041 24.2251C52.0235 24.0716 51.5465 23.9948 50.8731 23.9948V23.3246H56.1551V23.9948C55.664 23.9948 55.2642 24.0087 54.9556 24.0366C54.661 24.0646 54.4646 24.1204 54.3664 24.2042C54.2822 24.274 54.2331 24.3787 54.2191 24.5183C54.2191 24.644 54.2331 24.7696 54.2611 24.8953L57.0389 35.0524C57.4738 33.5305 57.9017 32.0157 58.3225 30.5079C58.7574 29 59.1923 27.4852 59.6272 25.9634L59.3537 24.8534C59.3116 24.6998 59.2485 24.5672 59.1643 24.4555C59.0801 24.3438 58.9889 24.26 58.8907 24.2042C58.6663 24.0646 58.1893 23.9948 57.4598 23.9948V23.3246H62.7838V23.9948C62.2647 23.9948 61.8578 24.0087 61.5632 24.0366C61.2686 24.0646 61.0722 24.1204 60.974 24.2042C60.8898 24.274 60.8267 24.3647 60.7846 24.4764C60.7566 24.5742 60.7706 24.7138 60.8267 24.8953L63.6676 35.0942L66.4664 25.1675C66.5085 25 66.5365 24.8394 66.5506 24.6859C66.5646 24.5183 66.5155 24.3787 66.4032 24.267C66.2209 24.0855 65.6527 23.9948 64.6987 23.9948V23.3246H69.2652V23.9948Z" fill="#FEF4D0"/>
<path d="M78.9128 35.4084C78.9829 35.4642 79.0531 35.5201 79.1232 35.5759C79.2074 35.6318 79.2846 35.6876 79.3547 35.7435C79.018 36.2461 78.6462 36.6649 78.2394 37C77.8326 37.3351 77.3977 37.6143 76.9347 37.8377C76.3034 38.1448 75.623 38.2984 74.8935 38.2984C73.5046 38.2984 72.3683 37.8586 71.4844 36.9791C70.5445 36.0436 70.0745 34.7801 70.0745 33.1885C70.0745 31.6527 70.5234 30.4171 71.4213 29.4817C72.3051 28.5183 73.4275 28.0366 74.7883 28.0366C76.1491 28.0366 77.2223 28.4276 78.0079 29.2094C78.8497 30.0052 79.2705 31.1571 79.2705 32.6649C77.9658 32.7068 76.6822 32.7557 75.4196 32.8115C74.157 32.8534 72.8663 32.8953 71.5476 32.9372C71.5476 32.993 71.5405 33.0489 71.5265 33.1047C71.5265 33.1466 71.5265 33.1955 71.5265 33.2513C71.5265 33.8377 71.6037 34.3682 71.758 34.8429C71.9264 35.3176 72.1648 35.7435 72.4735 36.1204C73.1188 36.9581 74.0237 37.377 75.1881 37.377C75.8054 37.377 76.4507 37.2164 77.1241 36.8953C77.4327 36.7138 77.7344 36.5044 78.029 36.267C78.3376 36.0157 78.6322 35.7295 78.9128 35.4084ZM71.5897 32.1414C72.6418 32.1134 73.68 32.0785 74.7041 32.0366C75.7282 31.9948 76.7664 31.9599 77.8185 31.9319C77.8045 31.0105 77.5169 30.2705 76.9558 29.712C76.3806 29.0977 75.6581 28.7906 74.7883 28.7906C73.9465 28.7906 73.21 29.1257 72.5787 29.7958C71.9895 30.4101 71.6598 31.192 71.5897 32.1414Z" fill="#FEF4D0"/>
<path d="M90.428 37.8168C89.8528 37.8168 89.3759 37.8377 88.9971 37.8796C88.8848 37.8935 88.7235 37.9145 88.5131 37.9424C88.3167 37.9703 88.0782 37.9983 87.7976 38.0262C87.7836 37.9145 87.7695 37.8028 87.7555 37.6911C87.7555 37.5794 87.7485 37.4677 87.7345 37.356C87.0751 37.9703 86.1422 38.2775 84.9357 38.2775C83.7292 38.2775 82.7261 37.8586 81.9265 37.0209C81.0426 36.0995 80.6007 34.815 80.6007 33.1675C80.6007 31.6457 81.0286 30.3962 81.8844 29.4188C82.6981 28.4834 83.7152 28.0157 84.9357 28.0157C86.058 28.0157 86.9909 28.288 87.7345 28.8325V25.4817C87.7345 25.1885 87.6433 24.9721 87.4609 24.8325C87.2785 24.6928 86.8577 24.623 86.1983 24.623C86.1702 24.5532 86.1492 24.4764 86.1352 24.3927C86.1352 24.3089 86.1211 24.2321 86.0931 24.1623C86.5841 23.9948 87.0681 23.8272 87.5451 23.6597C88.0361 23.4782 88.5271 23.2967 89.0181 23.1152V36.1204C89.0181 36.4415 89.0953 36.6649 89.2496 36.7906C89.5021 37.1117 89.8949 37.2723 90.428 37.2723V37.8168ZM87.7345 29.8586C87.1032 29.2024 86.3246 28.8743 85.3986 28.8743C84.7954 28.8743 84.2553 29.014 83.7783 29.2932C83.3013 29.5724 82.9155 29.9703 82.6209 30.4869C82.2141 31.2269 82.0106 32.1274 82.0106 33.1885C82.0106 34.4311 82.3333 35.4363 82.9786 36.2042C83.624 37 84.4306 37.3979 85.3986 37.3979C86.3526 37.3979 87.1312 37.0558 87.7345 36.3717V29.8586Z" fill="#FEF4D0"/>
<path d="M101.217 37.8168C100.642 37.8168 100.165 37.8377 99.786 37.8796C99.6738 37.8935 99.5124 37.9145 99.302 37.9424C99.1056 37.9703 98.8671 37.9983 98.5865 38.0262C98.5725 37.9145 98.5585 37.8028 98.5444 37.6911C98.5444 37.5794 98.5374 37.4677 98.5234 37.356C97.864 37.9703 96.9311 38.2775 95.7246 38.2775C94.5181 38.2775 93.515 37.8586 92.7154 37.0209C91.8316 36.0995 91.3896 34.815 91.3896 33.1675C91.3896 31.6457 91.8175 30.3962 92.6733 29.4188C93.487 28.4834 94.5041 28.0157 95.7246 28.0157C96.8469 28.0157 97.7798 28.288 98.5234 28.8325V25.4817C98.5234 25.1885 98.4322 24.9721 98.2498 24.8325C98.0674 24.6928 97.6466 24.623 96.9872 24.623C96.9591 24.5532 96.9381 24.4764 96.9241 24.3927C96.9241 24.3089 96.91 24.2321 96.882 24.1623C97.373 23.9948 97.857 23.8272 98.334 23.6597C98.825 23.4782 99.316 23.2967 99.807 23.1152V36.1204C99.807 36.4415 99.8842 36.6649 100.039 36.7906C100.291 37.1117 100.684 37.2723 101.217 37.2723V37.8168ZM98.5234 29.8586C97.8921 29.2024 97.1135 28.8743 96.1876 28.8743C95.5843 28.8743 95.0442 29.014 94.5672 29.2932C94.0902 29.5724 93.7044 29.9703 93.4098 30.4869C93.003 31.2269 92.7995 32.1274 92.7995 33.1885C92.7995 34.4311 93.1222 35.4363 93.7675 36.2042C94.4129 37 95.2196 37.3979 96.1876 37.3979C97.1415 37.3979 97.9201 37.0558 98.5234 36.3717V29.8586Z" fill="#FEF4D0"/>
<path d="M105.272 24.0785C105.272 24.4136 105.16 24.6928 104.935 24.9162C104.711 25.1396 104.43 25.2513 104.094 25.2513C103.785 25.2513 103.525 25.1396 103.315 24.9162C103.118 24.6928 103.02 24.4136 103.02 24.0785C103.02 23.7435 103.126 23.4642 103.336 23.2408C103.546 23.0175 103.799 22.9058 104.094 22.9058C104.43 22.9058 104.711 23.0175 104.935 23.2408C105.16 23.4642 105.272 23.7435 105.272 24.0785ZM106.261 37.9424H102.326V37.2513C102.901 37.2513 103.273 37.1675 103.441 37C103.581 36.8743 103.652 36.644 103.652 36.3089V30.2775C103.652 29.9703 103.588 29.7609 103.462 29.6492C103.308 29.5236 102.936 29.4607 102.347 29.4607L102.263 29L104.935 27.9948V36.3089C104.935 36.6998 104.998 36.9442 105.125 37.0419C105.307 37.1815 105.686 37.2513 106.261 37.2513V37.9424Z" fill="#FEF4D0"/>
<path d="M117.476 37.9215H113.373V37.2513C113.864 37.2513 114.207 37.1885 114.404 37.0628C114.642 36.9092 114.762 36.6091 114.762 36.1623V30.9058C114.762 29.733 114.207 29.1466 113.099 29.1466C112.44 29.1466 111.886 29.2583 111.437 29.4817C111.24 29.5794 111.009 29.712 110.742 29.8796C110.476 30.0332 110.181 30.2216 109.858 30.445V36.1623C109.858 36.5811 109.95 36.8604 110.132 37C110.244 37.0698 110.399 37.1257 110.595 37.1675C110.791 37.2234 111.03 37.2513 111.31 37.2513V37.9215H107.207V37.2513C107.74 37.2513 108.126 37.1675 108.364 37C108.505 36.8604 108.575 36.5811 108.575 36.1623V30.3822C108.575 30.0052 108.505 29.7679 108.364 29.6702C108.168 29.5166 107.81 29.4398 107.291 29.4398C107.263 29.37 107.242 29.2932 107.228 29.2094C107.228 29.1257 107.214 29.0489 107.186 28.9791C107.635 28.8255 108.077 28.6719 108.512 28.5183C108.961 28.3647 109.41 28.2112 109.858 28.0576V29.5445C111.051 28.5672 112.264 28.0785 113.499 28.0785C114.355 28.0785 114.993 28.3229 115.414 28.8115C115.835 29.3141 116.045 30.0262 116.045 30.9476V36.1414C116.045 36.5742 116.129 36.8604 116.298 37C116.41 37.0698 116.564 37.1257 116.761 37.1675C116.957 37.2234 117.196 37.2513 117.476 37.2513V37.9215Z" fill="#FEF4D0"/>
<path d="M122.198 37.1047C120.584 37.4537 119.778 38.0262 119.778 38.822C119.778 39.2967 120.079 39.6597 120.683 39.911C121.314 40.1483 122.198 40.267 123.334 40.267C123.699 40.267 124.035 40.2461 124.344 40.2042C124.667 40.1763 124.961 40.1204 125.228 40.0366C125.312 40.0087 125.396 39.9738 125.48 39.9319C125.565 39.904 125.642 39.8761 125.712 39.8482C126.343 39.5969 126.659 39.2757 126.659 38.8848C126.659 38.6056 126.519 38.3752 126.238 38.1937C125.957 38.0122 125.431 37.8237 124.66 37.6283C124.351 37.5585 123.986 37.4817 123.565 37.3979C123.159 37.3141 122.703 37.2164 122.198 37.1047ZM128.469 28.7696C128.469 29.3002 128.237 29.5654 127.774 29.5654C127.578 29.5654 127.388 29.4956 127.206 29.356C127.108 29.3002 127.017 29.2583 126.932 29.2304C126.848 29.1885 126.764 29.1675 126.68 29.1675C126.61 29.1675 126.568 29.1745 126.554 29.1885C126.441 29.2024 126.329 29.2792 126.217 29.4188C126.624 29.9494 126.827 30.6126 126.827 31.4084C126.827 32.3438 126.477 33.1257 125.775 33.7539C125.06 34.3822 124.134 34.6963 122.997 34.6963C122.675 34.6963 122.387 34.6824 122.135 34.6544C121.882 34.6265 121.658 34.5916 121.461 34.5497C120.858 34.6754 120.556 34.8709 120.556 35.1361C120.556 35.4014 120.802 35.5899 121.293 35.7016C121.433 35.7295 121.573 35.7574 121.714 35.7853C121.854 35.7993 121.987 35.8202 122.113 35.8482C122.759 35.9878 123.334 36.1134 123.839 36.2251C124.344 36.3368 124.793 36.4415 125.186 36.5393C125.579 36.637 125.922 36.7417 126.217 36.8534C126.526 36.9511 126.785 37.0698 126.996 37.2094C127.613 37.5724 127.922 38.0332 127.922 38.5916C127.922 40.1972 126.287 41 123.018 41C119.96 41 118.431 40.288 118.431 38.8639C118.431 38.445 118.711 38.0262 119.273 37.6073C119.525 37.4119 119.799 37.2513 120.093 37.1257C120.388 37 120.704 36.9023 121.04 36.8325C119.82 36.5253 119.209 36.0785 119.209 35.4921C119.209 34.9197 119.686 34.4729 120.64 34.1518C119.658 33.5236 119.167 32.5951 119.167 31.3665C119.167 30.4311 119.532 29.6492 120.262 29.0209C120.991 28.3787 121.903 28.0576 122.997 28.0576C124.162 28.0576 125.067 28.3159 125.712 28.8325C126.175 28.288 126.729 28.0157 127.374 28.0157C128.104 28.0157 128.469 28.267 128.469 28.7696ZM125.523 31.4084C125.523 31.0314 125.459 30.6894 125.333 30.3822C125.207 30.0611 125.032 29.7888 124.807 29.5654C124.583 29.3281 124.316 29.1466 124.007 29.0209C123.699 28.8813 123.369 28.8115 123.018 28.8115C122.261 28.8115 121.651 29.0489 121.188 29.5236C120.739 29.9983 120.514 30.6126 120.514 31.3665C120.514 32.1065 120.746 32.7068 121.209 33.1675C121.686 33.6841 122.289 33.9424 123.018 33.9424C123.72 33.9424 124.309 33.7051 124.786 33.2304C125.277 32.7417 125.523 32.1344 125.523 31.4084Z" fill="#FEF4D0"/>
<path fill-rule="evenodd" clip-rule="evenodd" d="M1.87935 1C8.32872 1.29397 12.4259 2.42988 14.9088 5.18802C15.5863 5.94063 16.1292 6.79927 16.5655 7.76726C17.4936 7.5385 18.4644 7.41711 19.4636 7.41711C20.4684 7.41711 21.4444 7.53986 22.3773 7.77111C22.8138 6.80155 23.3573 5.94162 24.0357 5.18802C26.5185 2.42988 30.6157 1.29397 37.0651 1L37.0852 1.43741L37.9445 1.47658C37.6488 7.90037 36.5059 12.1528 33.7625 14.8175C33.0052 15.5532 32.1403 16.1535 31.1639 16.6424C31.37 17.52 31.479 18.4347 31.479 19.3748C31.479 20.1874 31.3976 20.9811 31.2424 21.7482C32.1867 22.2297 33.0255 22.8175 33.7625 23.5334C36.5059 26.1981 37.6488 30.4505 37.9445 36.8743L37.0852 36.9135L37.0651 37.3509C30.6157 37.0569 26.5185 35.921 24.0357 33.1629C23.4415 32.5028 22.9508 31.7612 22.5448 30.9358C21.5615 31.1947 20.5287 31.3326 19.4636 31.3326C18.404 31.3326 17.3764 31.1961 16.3977 30.9398C15.9921 31.7636 15.502 32.5039 14.9088 33.1629C12.4259 35.921 8.32872 37.0569 1.87935 37.3509L1.85922 36.9135L1 36.8743C1.29563 30.4505 2.43858 26.1981 5.18196 23.5334C5.91486 22.8215 6.74842 22.2363 7.68638 21.7562C7.53012 20.9866 7.44811 20.1903 7.44811 19.3748C7.44811 18.432 7.55776 17.5146 7.76507 16.6346C6.79497 16.1472 5.93529 15.5493 5.18196 14.8175C2.43858 12.1528 1.29563 7.90037 1 1.47658L1.85922 1.43741L1.87935 1ZM9.34213 17.2995C9.20409 17.9698 9.13159 18.6639 9.13159 19.3748C9.13159 19.9544 9.17977 20.5227 9.27235 21.0761C11.5911 20.2495 14.4286 19.8794 17.8252 19.7335L17.8622 20.5877L18.3019 20.6066C18.1502 24.1049 17.8326 27.0146 17.0385 29.3724C17.8163 29.5586 18.6284 29.6572 19.4636 29.6572C20.3045 29.6572 21.122 29.5572 21.9046 29.3685C21.1115 27.0114 20.7942 24.103 20.6426 20.6066L21.0822 20.5877L21.1193 19.7335C24.5079 19.8791 27.3401 20.2477 29.6558 21.0703C29.7477 20.5187 29.7956 19.9523 29.7956 19.3748C29.7956 18.6659 29.7235 17.9737 29.5862 17.3052C27.2834 18.1105 24.474 18.4733 21.1193 18.6174L21.0822 17.7632L20.6426 17.7443C20.7864 14.429 21.0791 11.6424 21.7852 9.35312C21.0389 9.1826 20.2618 9.09251 19.4636 9.09251C18.6711 9.09251 17.8995 9.1813 17.1582 9.34943C17.865 11.6394 18.158 14.4272 18.3019 17.7443L17.8622 17.7632L17.8252 18.6174C14.4626 18.4729 11.6479 18.1088 9.34213 17.2995ZM15.5536 9.8543C16.1163 11.6876 16.4146 13.9845 16.5737 16.8724C13.8083 16.6914 11.5935 16.3266 9.81525 15.6889C10.8361 13.0439 12.9236 10.9252 15.5536 9.8543ZM14.9543 8.28773C11.9043 9.5175 9.47712 11.9575 8.27403 15.0092C7.54739 14.618 6.91283 14.1577 6.35784 13.6186C4.26712 11.5878 3.14212 8.27705 2.75757 2.72476C8.54683 3.0829 11.7642 4.20558 13.6549 6.30595C14.1686 6.87661 14.597 7.53238 14.9543 8.28773ZM23.3889 9.86058C22.8274 11.6928 22.5296 13.9878 22.3708 16.8724C25.1282 16.6919 27.3384 16.3287 29.114 15.6944C28.0958 13.052 26.0134 10.9342 23.3889 9.86058ZM30.6561 15.0169C31.3887 14.624 32.028 14.1612 32.5866 13.6186C34.6773 11.5878 35.8023 8.27705 36.1869 2.72476C30.3976 3.0829 27.1803 4.20558 25.2896 6.30595C24.7745 6.87809 24.3453 7.53578 23.9874 8.29361C27.0331 9.52629 29.456 11.9665 30.6561 15.0169ZM29.2423 22.7031C27.4451 22.04 25.195 21.6634 22.3708 21.4785C22.54 24.5507 22.8668 26.9542 23.5019 28.8421C26.1881 27.7059 28.2915 25.4704 29.2423 22.7031ZM24.1516 30.3882C24.4746 31.0085 24.851 31.5578 25.2896 32.045C27.1803 34.1453 30.3976 35.268 36.1869 35.6261C35.8023 30.0739 34.6773 26.7631 32.5866 24.7323C32.0599 24.2206 31.4614 23.78 30.7806 23.4019C29.6492 26.5507 27.2286 29.0894 24.1516 30.3882ZM15.4404 28.8485C16.0769 26.9596 16.4043 24.5542 16.5737 21.4785C13.7414 21.6639 11.4865 22.0421 9.6868 22.7088C10.6403 25.4787 12.7488 27.715 15.4404 28.8485ZM8.1494 23.4099C7.47457 23.7862 6.88087 24.2243 6.35784 24.7323C4.26712 26.7631 3.14212 30.0739 2.75757 35.6261C8.54683 35.268 11.7642 34.1453 13.6549 32.045C14.0921 31.5593 14.4674 31.012 14.7898 30.3942C11.7086 29.0983 9.2838 26.5599 8.1494 23.4099Z" stroke="#FEF4D0" stroke-width="0.6" mask="url(#path-1-outside-1_75_88)"/>
<path d="M62.6365 5.35602C62.6365 6.58464 62.2226 7.57592 61.3949 8.32984C60.5532 9.08377 59.4519 9.46073 58.0911 9.46073H54.4295V14.1309C54.4295 14.6335 54.5487 14.9825 54.7872 15.178C55.1099 15.3735 55.6781 15.4712 56.4918 15.4712V16.1414H51.1467V15.4712C51.8762 15.4712 52.4023 15.3735 52.725 15.178C52.9635 14.9825 53.0827 14.6335 53.0827 14.1309V3.45026C53.0827 3.26876 53.0546 3.12914 52.9985 3.03141C52.9284 2.84991 52.8372 2.70332 52.725 2.59162C52.4584 2.36824 51.9323 2.25654 51.1467 2.25654V1.5445H58.2384C59.4729 1.5445 60.5111 1.87958 61.3528 2.54974C62.2086 3.23386 62.6365 4.16928 62.6365 5.35602ZM61.1845 5.35602C61.1845 4.43455 60.8548 3.68761 60.1954 3.11518C59.536 2.58464 58.7504 2.31937 57.8385 2.31937H56.4497C56.3374 2.31937 56.2182 2.32635 56.0919 2.34031C55.9797 2.34031 55.8675 2.34031 55.7552 2.34031C55.4466 2.34031 55.173 2.37522 54.9345 2.44503C54.7381 2.51483 54.6049 2.63351 54.5347 2.80105C54.4646 2.95462 54.4295 3.16405 54.4295 3.42932V8.64398H57.8175C58.3366 8.64398 58.7995 8.56719 59.2064 8.41361C59.6272 8.24607 59.985 8.02269 60.2796 7.74346C60.8828 7.14311 61.1845 6.34729 61.1845 5.35602Z" stroke="#FEF4D0" stroke-width="0.6" mask="url(#path-1-outside-1_75_88)"/>
<path d="M76.4137 11.3874C76.4137 12.9511 75.9648 14.2007 75.0669 15.1361C74.2112 16.0716 73.1169 16.5393 71.7841 16.5393C70.4374 16.5393 69.3361 16.0716 68.4803 15.1361C67.5825 14.2007 67.1335 12.9511 67.1335 11.3874C67.1335 9.82373 67.5825 8.57417 68.4803 7.63874C69.3361 6.70332 70.4374 6.2356 71.7841 6.2356C73.1169 6.2356 74.2112 6.70332 75.0669 7.63874C75.9648 8.57417 76.4137 9.82373 76.4137 11.3874ZM74.9828 11.3874C74.9828 10.103 74.6741 9.04887 74.0568 8.22513C73.4817 7.4014 72.7241 6.98953 71.7841 6.98953C70.8582 6.98953 70.0866 7.4014 69.4694 8.22513C68.8661 9.04887 68.5645 10.103 68.5645 11.3874C68.5645 12.6579 68.8591 13.712 69.4483 14.5497C70.0516 15.3595 70.8302 15.7644 71.7841 15.7644C72.696 15.7644 73.4536 15.3595 74.0568 14.5497C74.6741 13.726 74.9828 12.6719 74.9828 11.3874Z" stroke="#FEF4D0" stroke-width="0.6" mask="url(#path-1-outside-1_75_88)"/>
<path d="M89.2738 13.6283C89.3439 13.6841 89.4141 13.733 89.4842 13.7749C89.5544 13.8168 89.6245 13.8656 89.6946 13.9215C88.6705 15.6527 87.2957 16.5183 85.5701 16.5183C84.3356 16.5183 83.2834 16.0855 82.4136 15.2199C81.5438 14.2705 81.1089 13.0768 81.1089 11.6387C81.1089 10.1449 81.5859 8.86038 82.5398 7.78534C83.4658 6.7801 84.6232 6.27749 86.012 6.27749C86.8397 6.27749 87.5622 6.43804 88.1795 6.75916C88.404 6.87085 88.6074 7.00349 88.7898 7.15707C88.9862 7.31065 89.1475 7.49215 89.2738 7.70157C89.4141 7.93892 89.4842 8.17626 89.4842 8.41361C89.4842 8.66492 89.4141 8.90227 89.2738 9.12565C89.1335 9.34904 88.923 9.46073 88.6425 9.46073C88.1374 9.46073 87.8007 9.06981 87.6324 8.28796C87.5903 8.07853 87.5061 7.90401 87.3799 7.7644C87.2536 7.62478 87.0993 7.49913 86.9169 7.38743C86.5521 7.16405 86.1032 7.05236 85.5701 7.05236C84.7705 7.05236 84.062 7.46422 83.4447 8.28796C82.8274 9.15358 82.5188 10.1728 82.5188 11.3455C82.5188 11.9738 82.596 12.5462 82.7503 13.0628C82.9186 13.5794 83.1641 14.0262 83.4868 14.4031C84.1462 15.185 84.9669 15.5759 85.9489 15.5759C87.1554 15.5759 88.2637 14.9267 89.2738 13.6283Z" stroke="#FEF4D0" stroke-width="0.6" mask="url(#path-1-outside-1_75_88)"/>
<path d="M104.775 16.1414H100.23V15.4712C100.875 15.4712 101.296 15.3944 101.492 15.2408C101.577 15.199 101.619 15.1361 101.619 15.0524C101.619 14.9407 101.569 14.836 101.471 14.7382C101.401 14.6684 101.331 14.5986 101.261 14.5288C101.205 14.459 101.149 14.3892 101.093 14.3194C100.672 13.7609 100.258 13.2024 99.8509 12.644C99.4441 12.0716 99.0373 11.5061 98.6304 10.9476C98.3358 11.185 98.0342 11.4154 97.7255 11.6387C97.4309 11.8621 97.1293 12.0925 96.8207 12.3298V14.3822C96.8207 14.801 96.9119 15.0803 97.0942 15.2199C97.2205 15.2897 97.3818 15.3455 97.5782 15.3874C97.7746 15.4433 98.0061 15.4712 98.2727 15.4712V16.1414H94.1692V15.4712C94.4217 15.4712 94.6392 15.4433 94.8215 15.3874C95.0179 15.3455 95.1723 15.2897 95.2845 15.2199C95.4528 15.0942 95.537 14.815 95.537 14.3822V3.55497C95.537 3.08028 95.3266 2.80803 94.9057 2.73822C94.8356 2.72426 94.7514 2.71728 94.6532 2.71728C94.555 2.70332 94.4357 2.69633 94.2954 2.69633C94.2814 2.62653 94.2674 2.5637 94.2534 2.50785C94.2393 2.43804 94.2253 2.36824 94.2113 2.29843C94.6602 2.13089 95.0951 1.97033 95.516 1.81675C95.9509 1.64921 96.3858 1.48167 96.8207 1.31414V11.3246C97.5361 10.7382 98.2446 10.1658 98.9461 9.60733C99.6615 9.0349 100.377 8.4555 101.093 7.86911C101.233 7.77138 101.303 7.67365 101.303 7.57592C101.303 7.50611 101.275 7.44328 101.219 7.38743C101.064 7.19197 100.616 7.09424 99.872 7.09424V6.44503H104.123V7.09424C103.73 7.09424 103.407 7.14311 103.155 7.24084C103.043 7.29668 102.811 7.47818 102.46 7.78534L101.892 8.1623C101.499 8.48342 101.107 8.80454 100.714 9.12565C100.335 9.44677 99.9421 9.76789 99.5353 10.089C100.096 10.8429 100.651 11.6038 101.198 12.3717C101.759 13.1257 102.32 13.8796 102.881 14.6335C103.092 14.9127 103.323 15.1012 103.576 15.199C103.926 15.3805 104.326 15.4712 104.775 15.4712V16.1414Z" stroke="#FEF4D0" stroke-width="0.6" mask="url(#path-1-outside-1_75_88)"/>
<path d="M117.842 13.6283C117.913 13.6841 117.983 13.74 118.053 13.7958C118.137 13.8517 118.214 13.9075 118.284 13.9634C117.948 14.466 117.576 14.8848 117.169 15.2199C116.762 15.555 116.327 15.8342 115.864 16.0576C115.233 16.3647 114.553 16.5183 113.823 16.5183C112.434 16.5183 111.298 16.0785 110.414 15.199C109.474 14.2635 109.004 13 109.004 11.4084C109.004 9.8726 109.453 8.637 110.351 7.70157C111.235 6.73822 112.357 6.25654 113.718 6.25654C115.079 6.25654 116.152 6.64747 116.938 7.42932C117.779 8.22513 118.2 9.37696 118.2 10.8848C116.896 10.9267 115.612 10.9756 114.349 11.0314C113.087 11.0733 111.796 11.1152 110.477 11.1571C110.477 11.2129 110.47 11.2688 110.456 11.3246C110.456 11.3665 110.456 11.4154 110.456 11.4712C110.456 12.0576 110.533 12.5881 110.688 13.0628C110.856 13.5375 111.095 13.9634 111.403 14.3403C112.049 15.178 112.953 15.5969 114.118 15.5969C114.735 15.5969 115.38 15.4363 116.054 15.1152C116.362 14.9337 116.664 14.7243 116.959 14.4869C117.267 14.2356 117.562 13.9494 117.842 13.6283ZM110.519 10.3613C111.572 10.3333 112.61 10.2984 113.634 10.2565C114.658 10.2147 115.696 10.1798 116.748 10.1518C116.734 9.23037 116.447 8.4904 115.885 7.93194C115.31 7.31763 114.588 7.01047 113.718 7.01047C112.876 7.01047 112.14 7.34555 111.508 8.01571C110.919 8.63002 110.589 9.41187 110.519 10.3613Z" stroke="#FEF4D0" stroke-width="0.6" mask="url(#path-1-outside-1_75_88)"/>
<path d="M128.6 14.089C128.67 14.1449 128.733 14.1937 128.79 14.2356C128.86 14.2775 128.93 14.3194 129 14.3613C128.747 14.9476 128.404 15.4363 127.969 15.8272C127.478 16.288 126.945 16.5183 126.37 16.5183C125.612 16.5183 125.037 16.2461 124.644 15.7016C124.532 15.5061 124.441 15.2827 124.37 15.0314C124.3 14.7801 124.265 14.5009 124.265 14.1937V7.26178H122.624V6.59162C123.381 6.59162 123.943 6.30541 124.307 5.73298C124.714 5.07679 124.918 4.14136 124.918 2.9267H125.549V6.44503H128.306V7.26178H125.549V14.3403C125.549 15.0803 125.942 15.4503 126.727 15.4503C127.359 15.4503 127.983 14.9965 128.6 14.089Z" stroke="#FEF4D0" stroke-width="0.6" mask="url(#path-1-outside-1_75_88)"/>
<path d="M69.2652 23.9948C68.5777 23.9948 68.0867 24.1204 67.7921 24.3717C67.5677 24.5672 67.4063 24.8743 67.3081 25.2932L63.6255 38.1728H63.1205C62.6154 36.3997 62.1104 34.6475 61.6053 32.9162C61.1003 31.185 60.5952 29.4258 60.0902 27.6387C59.5711 29.4258 59.052 31.185 58.533 32.9162C58.0279 34.6475 57.5159 36.3997 56.9968 38.1728H56.4707L52.746 24.8534C52.6618 24.5462 52.5145 24.3368 52.3041 24.2251C52.0235 24.0716 51.5465 23.9948 50.8731 23.9948V23.3246H56.1551V23.9948C55.664 23.9948 55.2642 24.0087 54.9556 24.0366C54.661 24.0646 54.4646 24.1204 54.3664 24.2042C54.2822 24.274 54.2331 24.3787 54.2191 24.5183C54.2191 24.644 54.2331 24.7696 54.2611 24.8953L57.0389 35.0524C57.4738 33.5305 57.9017 32.0157 58.3225 30.5079C58.7574 29 59.1923 27.4852 59.6272 25.9634L59.3537 24.8534C59.3116 24.6998 59.2485 24.5672 59.1643 24.4555C59.0801 24.3438 58.9889 24.26 58.8907 24.2042C58.6663 24.0646 58.1893 23.9948 57.4598 23.9948V23.3246H62.7838V23.9948C62.2647 23.9948 61.8578 24.0087 61.5632 24.0366C61.2686 24.0646 61.0722 24.1204 60.974 24.2042C60.8898 24.274 60.8267 24.3647 60.7846 24.4764C60.7566 24.5742 60.7706 24.7138 60.8267 24.8953L63.6676 35.0942L66.4664 25.1675C66.5085 25 66.5365 24.8394 66.5506 24.6859C66.5646 24.5183 66.5155 24.3787 66.4032 24.267C66.2209 24.0855 65.6527 23.9948 64.6987 23.9948V23.3246H69.2652V23.9948Z" stroke="#FEF4D0" stroke-width="0.6" mask="url(#path-1-outside-1_75_88)"/>
<path d="M78.9128 35.4084C78.9829 35.4642 79.0531 35.5201 79.1232 35.5759C79.2074 35.6318 79.2846 35.6876 79.3547 35.7435C79.018 36.2461 78.6462 36.6649 78.2394 37C77.8326 37.3351 77.3977 37.6143 76.9347 37.8377C76.3034 38.1448 75.623 38.2984 74.8935 38.2984C73.5046 38.2984 72.3683 37.8586 71.4844 36.9791C70.5445 36.0436 70.0745 34.7801 70.0745 33.1885C70.0745 31.6527 70.5234 30.4171 71.4213 29.4817C72.3051 28.5183 73.4275 28.0366 74.7883 28.0366C76.1491 28.0366 77.2223 28.4276 78.0079 29.2094C78.8497 30.0052 79.2705 31.1571 79.2705 32.6649C77.9658 32.7068 76.6822 32.7557 75.4196 32.8115C74.157 32.8534 72.8663 32.8953 71.5476 32.9372C71.5476 32.993 71.5405 33.0489 71.5265 33.1047C71.5265 33.1466 71.5265 33.1955 71.5265 33.2513C71.5265 33.8377 71.6037 34.3682 71.758 34.8429C71.9264 35.3176 72.1648 35.7435 72.4735 36.1204C73.1188 36.9581 74.0237 37.377 75.1881 37.377C75.8054 37.377 76.4507 37.2164 77.1241 36.8953C77.4327 36.7138 77.7344 36.5044 78.029 36.267C78.3376 36.0157 78.6322 35.7295 78.9128 35.4084ZM71.5897 32.1414C72.6418 32.1134 73.68 32.0785 74.7041 32.0366C75.7282 31.9948 76.7664 31.9599 77.8185 31.9319C77.8045 31.0105 77.5169 30.2705 76.9558 29.712C76.3806 29.0977 75.6581 28.7906 74.7883 28.7906C73.9465 28.7906 73.21 29.1257 72.5787 29.7958C71.9895 30.4101 71.6598 31.192 71.5897 32.1414Z" stroke="#FEF4D0" stroke-width="0.6" mask="url(#path-1-outside-1_75_88)"/>
<path d="M90.428 37.8168C89.8528 37.8168 89.3759 37.8377 88.9971 37.8796C88.8848 37.8935 88.7235 37.9145 88.5131 37.9424C88.3167 37.9703 88.0782 37.9983 87.7976 38.0262C87.7836 37.9145 87.7695 37.8028 87.7555 37.6911C87.7555 37.5794 87.7485 37.4677 87.7345 37.356C87.0751 37.9703 86.1422 38.2775 84.9357 38.2775C83.7292 38.2775 82.7261 37.8586 81.9265 37.0209C81.0426 36.0995 80.6007 34.815 80.6007 33.1675C80.6007 31.6457 81.0286 30.3962 81.8844 29.4188C82.6981 28.4834 83.7152 28.0157 84.9357 28.0157C86.058 28.0157 86.9909 28.288 87.7345 28.8325V25.4817C87.7345 25.1885 87.6433 24.9721 87.4609 24.8325C87.2785 24.6928 86.8577 24.623 86.1983 24.623C86.1702 24.5532 86.1492 24.4764 86.1352 24.3927C86.1352 24.3089 86.1211 24.2321 86.0931 24.1623C86.5841 23.9948 87.0681 23.8272 87.5451 23.6597C88.0361 23.4782 88.5271 23.2967 89.0181 23.1152V36.1204C89.0181 36.4415 89.0953 36.6649 89.2496 36.7906C89.5021 37.1117 89.8949 37.2723 90.428 37.2723V37.8168ZM87.7345 29.8586C87.1032 29.2024 86.3246 28.8743 85.3986 28.8743C84.7954 28.8743 84.2553 29.014 83.7783 29.2932C83.3013 29.5724 82.9155 29.9703 82.6209 30.4869C82.2141 31.2269 82.0106 32.1274 82.0106 33.1885C82.0106 34.4311 82.3333 35.4363 82.9786 36.2042C83.624 37 84.4306 37.3979 85.3986 37.3979C86.3526 37.3979 87.1312 37.0558 87.7345 36.3717V29.8586Z" stroke="#FEF4D0" stroke-width="0.6" mask="url(#path-1-outside-1_75_88)"/>
<path d="M101.217 37.8168C100.642 37.8168 100.165 37.8377 99.786 37.8796C99.6738 37.8935 99.5124 37.9145 99.302 37.9424C99.1056 37.9703 98.8671 37.9983 98.5865 38.0262C98.5725 37.9145 98.5585 37.8028 98.5444 37.6911C98.5444 37.5794 98.5374 37.4677 98.5234 37.356C97.864 37.9703 96.9311 38.2775 95.7246 38.2775C94.5181 38.2775 93.515 37.8586 92.7154 37.0209C91.8316 36.0995 91.3896 34.815 91.3896 33.1675C91.3896 31.6457 91.8175 30.3962 92.6733 29.4188C93.487 28.4834 94.5041 28.0157 95.7246 28.0157C96.8469 28.0157 97.7798 28.288 98.5234 28.8325V25.4817C98.5234 25.1885 98.4322 24.9721 98.2498 24.8325C98.0674 24.6928 97.6466 24.623 96.9872 24.623C96.9591 24.5532 96.9381 24.4764 96.9241 24.3927C96.9241 24.3089 96.91 24.2321 96.882 24.1623C97.373 23.9948 97.857 23.8272 98.334 23.6597C98.825 23.4782 99.316 23.2967 99.807 23.1152V36.1204C99.807 36.4415 99.8842 36.6649 100.039 36.7906C100.291 37.1117 100.684 37.2723 101.217 37.2723V37.8168ZM98.5234 29.8586C97.8921 29.2024 97.1135 28.8743 96.1876 28.8743C95.5843 28.8743 95.0442 29.014 94.5672 29.2932C94.0902 29.5724 93.7044 29.9703 93.4098 30.4869C93.003 31.2269 92.7995 32.1274 92.7995 33.1885C92.7995 34.4311 93.1222 35.4363 93.7675 36.2042C94.4129 37 95.2196 37.3979 96.1876 37.3979C97.1415 37.3979 97.9201 37.0558 98.5234 36.3717V29.8586Z" stroke="#FEF4D0" stroke-width="0.6" mask="url(#path-1-outside-1_75_88)"/>
<path d="M105.272 24.0785C105.272 24.4136 105.16 24.6928 104.935 24.9162C104.711 25.1396 104.43 25.2513 104.094 25.2513C103.785 25.2513 103.525 25.1396 103.315 24.9162C103.118 24.6928 103.02 24.4136 103.02 24.0785C103.02 23.7435 103.126 23.4642 103.336 23.2408C103.546 23.0175 103.799 22.9058 104.094 22.9058C104.43 22.9058 104.711 23.0175 104.935 23.2408C105.16 23.4642 105.272 23.7435 105.272 24.0785ZM106.261 37.9424H102.326V37.2513C102.901 37.2513 103.273 37.1675 103.441 37C103.581 36.8743 103.652 36.644 103.652 36.3089V30.2775C103.652 29.9703 103.588 29.7609 103.462 29.6492C103.308 29.5236 102.936 29.4607 102.347 29.4607L102.263 29L104.935 27.9948V36.3089C104.935 36.6998 104.998 36.9442 105.125 37.0419C105.307 37.1815 105.686 37.2513 106.261 37.2513V37.9424Z" stroke="#FEF4D0" stroke-width="0.6" mask="url(#path-1-outside-1_75_88)"/>
<path d="M117.476 37.9215H113.373V37.2513C113.864 37.2513 114.207 37.1885 114.404 37.0628C114.642 36.9092 114.762 36.6091 114.762 36.1623V30.9058C114.762 29.733 114.207 29.1466 113.099 29.1466C112.44 29.1466 111.886 29.2583 111.437 29.4817C111.24 29.5794 111.009 29.712 110.742 29.8796C110.476 30.0332 110.181 30.2216 109.858 30.445V36.1623C109.858 36.5811 109.95 36.8604 110.132 37C110.244 37.0698 110.399 37.1257 110.595 37.1675C110.791 37.2234 111.03 37.2513 111.31 37.2513V37.9215H107.207V37.2513C107.74 37.2513 108.126 37.1675 108.364 37C108.505 36.8604 108.575 36.5811 108.575 36.1623V30.3822C108.575 30.0052 108.505 29.7679 108.364 29.6702C108.168 29.5166 107.81 29.4398 107.291 29.4398C107.263 29.37 107.242 29.2932 107.228 29.2094C107.228 29.1257 107.214 29.0489 107.186 28.9791C107.635 28.8255 108.077 28.6719 108.512 28.5183C108.961 28.3647 109.41 28.2112 109.858 28.0576V29.5445C111.051 28.5672 112.264 28.0785 113.499 28.0785C114.355 28.0785 114.993 28.3229 115.414 28.8115C115.835 29.3141 116.045 30.0262 116.045 30.9476V36.1414C116.045 36.5742 116.129 36.8604 116.298 37C116.41 37.0698 116.564 37.1257 116.761 37.1675C116.957 37.2234 117.196 37.2513 117.476 37.2513V37.9215Z" stroke="#FEF4D0" stroke-width="0.6" mask="url(#path-1-outside-1_75_88)"/>
<path d="M122.198 37.1047C120.584 37.4537 119.778 38.0262 119.778 38.822C119.778 39.2967 120.079 39.6597 120.683 39.911C121.314 40.1483 122.198 40.267 123.334 40.267C123.699 40.267 124.035 40.2461 124.344 40.2042C124.667 40.1763 124.961 40.1204 125.228 40.0366C125.312 40.0087 125.396 39.9738 125.48 39.9319C125.565 39.904 125.642 39.8761 125.712 39.8482C126.343 39.5969 126.659 39.2757 126.659 38.8848C126.659 38.6056 126.519 38.3752 126.238 38.1937C125.957 38.0122 125.431 37.8237 124.66 37.6283C124.351 37.5585 123.986 37.4817 123.565 37.3979C123.159 37.3141 122.703 37.2164 122.198 37.1047ZM128.469 28.7696C128.469 29.3002 128.237 29.5654 127.774 29.5654C127.578 29.5654 127.388 29.4956 127.206 29.356C127.108 29.3002 127.017 29.2583 126.932 29.2304C126.848 29.1885 126.764 29.1675 126.68 29.1675C126.61 29.1675 126.568 29.1745 126.554 29.1885C126.441 29.2024 126.329 29.2792 126.217 29.4188C126.624 29.9494 126.827 30.6126 126.827 31.4084C126.827 32.3438 126.477 33.1257 125.775 33.7539C125.06 34.3822 124.134 34.6963 122.997 34.6963C122.675 34.6963 122.387 34.6824 122.135 34.6544C121.882 34.6265 121.658 34.5916 121.461 34.5497C120.858 34.6754 120.556 34.8709 120.556 35.1361C120.556 35.4014 120.802 35.5899 121.293 35.7016C121.433 35.7295 121.573 35.7574 121.714 35.7853C121.854 35.7993 121.987 35.8202 122.113 35.8482C122.759 35.9878 123.334 36.1134 123.839 36.2251C124.344 36.3368 124.793 36.4415 125.186 36.5393C125.579 36.637 125.922 36.7417 126.217 36.8534C126.526 36.9511 126.785 37.0698 126.996 37.2094C127.613 37.5724 127.922 38.0332 127.922 38.5916C127.922 40.1972 126.287 41 123.018 41C119.96 41 118.431 40.288 118.431 38.8639C118.431 38.445 118.711 38.0262 119.273 37.6073C119.525 37.4119 119.799 37.2513 120.093 37.1257C120.388 37 120.704 36.9023 121.04 36.8325C119.82 36.5253 119.209 36.0785 119.209 35.4921C119.209 34.9197 119.686 34.4729 120.64 34.1518C119.658 33.5236 119.167 32.5951 119.167 31.3665C119.167 30.4311 119.532 29.6492 120.262 29.0209C120.991 28.3787 121.903 28.0576 122.997 28.0576C124.162 28.0576 125.067 28.3159 125.712 28.8325C126.175 28.288 126.729 28.0157 127.374 28.0157C128.104 28.0157 128.469 28.267 128.469 28.7696ZM125.523 31.4084C125.523 31.0314 125.459 30.6894 125.333 30.3822C125.207 30.0611 125.032 29.7888 124.807 29.5654C124.583 29.3281 124.316 29.1466 124.007 29.0209C123.699 28.8813 123.369 28.8115 123.018 28.8115C122.261 28.8115 121.651 29.0489 121.188 29.5236C120.739 29.9983 120.514 30.6126 120.514 31.3665C120.514 32.1065 120.746 32.7068 121.209 33.1675C121.686 33.6841 122.289 33.9424 123.018 33.9424C123.72 33.9424 124.309 33.7051 124.786 33.2304C125.277 32.7417 125.523 32.1344 125.523 31.4084Z" stroke="#FEF4D0" stroke-width="0.6" mask="url(#path-1-outside-1_75_88)"/>
</svg>
